<?xml version="1.0" encoding="UTF-8"?>
<svg version="1.1" xmlns="http://www.w3.org/2000/svg" width="32" height="32">
<path d="M0 0 C4.8846525 2.26787438 7.73212562 5.1153475 10 10 C10.75381535 15.5997712 10.77303575 20.33499991 8.375 25.5 C3.80134327 30.3143755 0.6912538 32.25156236 -6 32.5 C-12.6912538 32.25156236 -15.80134327 30.3143755 -20.375 25.5 C-22.77303575 20.33499991 -22.75381535 15.5997712 -22 10 C-17.52212837 0.3553534 -9.85292056 -1.32635469 0 0 Z " fill="#465F93" transform="translate(22,0)"/>
<path d="M0 0 C3.39946104 0.55140864 6.12315072 0.05921032 9.48046875 -0.59765625 C10.30564951 0.60205305 11.1150006 1.81265538 11.91796875 3.02734375 C12.37042969 3.70023438 12.82289062 4.373125 13.2890625 5.06640625 C14.69863778 7.83009811 15.09870058 10.3394221 15.48046875 13.40234375 C5.98389468 16.05056381 -1.86695202 17.20040736 -11.51953125 14.40234375 C-13.51953125 12.40234375 -13.51953125 12.40234375 -14.01953125 9.71484375 C-13.41272502 5.69475247 -12.23016268 3.63773634 -9.4921875 0.6796875 C-6.289791 -1.3939435 -3.61887692 -0.66245705 0 0 Z " fill="#261A24" transform="translate(15.51953125,6.59765625)"/>
<path d="M0 0 C1.9169986 0.31045732 3.83358723 0.62344671 5.75 0.9375 C7.35101563 1.19853516 7.35101563 1.19853516 8.984375 1.46484375 C12 2 12 2 13.96875 2.625 C17.01934667 3.18818708 19.70758556 2.57971045 22.75 2.0625 C23.92046875 1.86785156 25.0909375 1.67320313 26.296875 1.47265625 C27.18890625 1.31667969 28.0809375 1.16070313 29 1 C28.0493171 5.91012047 25.17948512 8.42175215 21.1875 11.3125 C16.49237897 12.78810947 12.38127195 12.46042398 7.8125 10.9375 C4.30375047 8.52036143 2.0349052 5.73666221 0 2 C0 1.34 0 0.68 0 0 Z " fill="#7D03F6" transform="translate(1,19)"/>
<path d="M0 0 C3.3125 1.8125 3.3125 1.8125 6 4 C6.8971875 4.61875 6.8971875 4.61875 7.8125 5.25 C9.82413564 8.21451569 9.71104815 11.47478745 10 15 C8.5 13 8.5 13 7 11 C6.443125 10.29875 5.88625 9.5975 5.3125 8.875 C4 7 4 7 4 5 C3.4328125 5.32613281 2.865625 5.65226563 2.28125 5.98828125 C-0.20166401 7.08943661 -1.80398946 7.23828102 -4.5 7.1875 C-5.62921875 7.17783203 -5.62921875 7.17783203 -6.78125 7.16796875 C-9 7 -9 7 -11.140625 6.3984375 C-13.16804575 5.7361273 -13.16804575 5.7361273 -15.25 7.4375 C-16.11625 8.2109375 -16.11625 8.2109375 -17 9 C-15.7216108 5.1648324 -13.24900067 3.17266573 -9.99609375 0.98828125 C-6.38791487 -0.79815565 -3.9999745 -0.57142493 0 0 Z " fill="#7807ED" transform="translate(21,1)"/>
<path d="M0 0 C1.32 0.66 2.64 1.32 4 2 C3.01 2 2.02 2 1 2 C0.71125 2.886875 0.4225 3.77375 0.125 4.6875 C-0.83148748 7.50382424 -1.86798946 10.25083156 -3 13 C-1.35 12.67 0.3 12.34 2 12 C2.66 10.02 3.32 8.04 4 6 C4.66 6 5.32 6 6 6 C5.67 7.98 5.34 9.96 5 12 C6.32 11.67 7.64 11.34 9 11 C9 12.98 9 14.96 9 17 C6.87363187 16.71848084 4.74891472 16.42446737 2.625 16.125 C1.44164062 15.96257813 0.25828125 15.80015625 -0.9609375 15.6328125 C-4 15 -4 15 -6 13 C-6.5 10.3125 -6.5 10.3125 -6 7 C-4.22983136 4.4322263 -2.19598621 2.20905756 0 0 Z " fill="#2C2415" transform="translate(8,6)"/>
<path d="M0 0 C3.73095646 0.50418331 5.52494758 1.15368971 8 4 C8.33 4 8.66 4 9 4 C9 6.97 9 9.94 9 13 C8.01 12.01 7.02 11.02 6 10 C5.01 10.66 4.02 11.32 3 12 C3.52268466 9.23723823 4.10869587 6.6739124 5 4 C2.64214682 4.89335797 2.64214682 4.89335797 1.875 8.0625 C1.58625 9.031875 1.2975 10.00125 1 11 C-0.65 11 -2.3 11 -4 11 C-3.39301257 6.87248551 -1.96189209 3.6678852 0 0 Z " fill="#C7B412" transform="translate(9,8)"/>
<path d="M0 0 C3.350183 1.22924965 5.43282897 2.94282407 7.1484375 6.140625 C7.42945312 6.75421875 7.71046875 7.3678125 8 8 C7.443125 7.566875 6.88625 7.13375 6.3125 6.6875 C0.23723991 2.25179164 0.23723991 2.25179164 -7.015625 1.41796875 C-11.71855606 2.79737176 -15.65468479 5.74580964 -18.16796875 9.95703125 C-19.11143508 12.04481182 -19.11143508 12.04481182 -20 15 C-21.35200437 10.94398689 -20.52469124 8.9503364 -19 5 C-13.10700467 -0.59834556 -7.89440615 -0.75233897 0 0 Z " fill="#656AB5" transform="translate(22,0)"/>
<path d="M0 0 C2.97069541 2.54631035 4.4775751 5.42230149 6 9 C5.67 9.66 5.34 10.32 5 11 C4.34 10.67 3.68 10.34 3 10 C0.88316159 10.89163577 0.88316159 10.89163577 -1 12 C-1 11.01 -1 10.02 -1 9 C-1.99 9.33 -2.98 9.66 -4 10 C-4 7.69 -4 5.38 -4 3 C-2.68 2.67 -1.36 2.34 0 2 C0 1.34 0 0.68 0 0 Z " fill="#A39615" transform="translate(23,8)"/>
<path d="M0 0 C2.72869407 0.03287583 5.2966618 0.56397771 8 1 C8.33 1.99 8.66 2.98 9 4 C7.35 4 5.7 4 4 4 C4.33 6.64 4.66 9.28 5 12 C4.34 12 3.68 12 3 12 C2.87625 10.9171875 2.87625 10.9171875 2.75 9.8125 C1.85249799 6.44686746 0.2885722 4.58387184 -2 2 C-1.34 1.34 -0.68 0.68 0 0 Z " fill="#242120" transform="translate(15,7)"/>
<path d="M0 0 C1.32 0 2.64 0 4 0 C4 2.97 4 5.94 4 9 C3.01 8.01 2.02 7.02 1 6 C0.01 6.66 -0.98 7.32 -2 8 C-1.47731534 5.23723823 -0.89130413 2.6739124 0 0 Z " fill="#D7C313" transform="translate(14,12)"/>
<path d="M0 0 C0.99 0.33 1.98 0.66 3 1 C2.67 2.65 2.34 4.3 2 6 C0.68 6.33 -0.64 6.66 -2 7 C-1.125 2.25 -1.125 2.25 0 0 Z " fill="#988B0F" transform="translate(7,12)"/>
<path d="M0 0 C0.33 0.66 0.66 1.32 1 2 C0.01 2 -0.98 2 -2 2 C-1.67 4.64 -1.34 7.28 -1 10 C-1.66 10 -2.32 10 -3 10 C-3.185625 8.88625 -3.185625 8.88625 -3.375 7.75 C-3.95486701 5.19858515 -4.73708739 3.2732427 -6 1 C-4.02 0.67 -2.04 0.34 0 0 Z " fill="#6A5F1E" transform="translate(21,9)"/>
<path d="M0 0 C2.15377564 2.62198774 3.40072174 4.64404172 4 8 C2.02 6.68 0.04 5.36 -2 4 C-1 1 -1 1 0 0 Z " fill="#D0C016" transform="translate(25,11)"/>
<path d="M0 0 C1.32 0.66 2.64 1.32 4 2 C3.01 2 2.02 2 1 2 C0.67 2.66 0.34 3.32 0 4 C-1.64142963 5.0409066 -3.30712215 6.04504326 -5 7 C-3.70700306 4.11562221 -2.34058637 2.12780579 0 0 Z " fill="#170A27" transform="translate(8,6)"/>
</svg>
